<?xml version="1.0" encoding="UTF-8"?><svg xmlns="http://www.w3.org/2000/svg" xmlns:xlink="http://www.w3.org/1999/xlink" height="409.6" preserveAspectRatio="xMidYMid meet" version="1.0" viewBox="0.0 0.4 409.6 409.6" width="409.6" zoomAndPan="magnify"><g id="change1_1"><path d="M 204.800781 0.398438 C 91.875 0.398438 0 92.273438 0 205.199219 C 0 318.128906 91.875 410 204.800781 410 C 317.726562 410 409.601562 318.128906 409.601562 205.199219 C 409.601562 92.273438 317.726562 0.398438 204.800781 0.398438 Z M 204.800781 392.933594 C 101.28125 392.933594 17.066406 308.714844 17.066406 205.199219 C 17.066406 101.679688 101.28125 17.464844 204.800781 17.464844 C 308.316406 17.464844 392.535156 101.679688 392.535156 205.199219 C 392.535156 308.714844 308.316406 392.933594 204.800781 392.933594 Z M 204.800781 392.933594" fill="inherit"/><path d="M 298.667969 154.003906 L 247.464844 154.003906 C 242.75 154.003906 238.933594 157.816406 238.933594 162.53125 C 238.933594 167.253906 242.75 171.066406 247.464844 171.066406 L 256 171.066406 C 256 180.472656 263.660156 188.132812 273.066406 188.132812 C 282.472656 188.132812 290.132812 180.472656 290.132812 171.066406 L 298.667969 171.066406 C 303.382812 171.066406 307.199219 167.253906 307.199219 162.53125 C 307.199219 157.816406 303.382812 154.003906 298.667969 154.003906 Z M 298.667969 154.003906" fill="inherit"/><path d="M 153.601562 171.066406 L 162.132812 171.066406 C 166.851562 171.066406 170.667969 167.246094 170.667969 162.53125 C 170.667969 157.8125 166.851562 153.996094 162.132812 153.996094 L 110.933594 153.996094 C 106.21875 153.996094 102.398438 157.8125 102.398438 162.53125 C 102.398438 167.246094 106.21875 171.066406 110.933594 171.066406 L 119.46875 171.066406 C 119.46875 180.472656 127.125 188.132812 136.535156 188.132812 C 145.941406 188.132812 153.601562 180.472656 153.601562 171.066406 Z M 153.601562 171.066406" fill="inherit"/><path d="M 264.535156 290.53125 L 145.066406 290.53125 C 140.347656 290.53125 136.53125 294.347656 136.53125 299.066406 C 136.53125 303.78125 140.347656 307.597656 145.066406 307.597656 L 264.53125 307.597656 C 269.25 307.597656 273.066406 303.78125 273.066406 299.066406 C 273.066406 294.347656 269.25 290.53125 264.535156 290.53125 Z M 264.535156 290.53125" fill="inherit"/></g></svg>