<?xml version="1.0" encoding="UTF-8" standalone="no"?><svg xmlns="http://www.w3.org/2000/svg" xmlns:xlink="http://www.w3.org/1999/xlink" fill="#000000" height="500" preserveAspectRatio="xMidYMid meet" version="1" viewBox="0.0 0.0 1678.7 500.0" width="1678.7" zoomAndPan="magnify"><g><g id="change1_1"><path d="M1447.3,500h-1216C103.6,500,0,396.4,0,268.7v-37.3C0,103.6,103.6,0,231.3,0h1216 c127.8,0,231.3,103.6,231.3,231.3v37.3C1678.7,396.4,1575.1,500,1447.3,500z" fill="#d9d9d9"/></g><g id="change2_1"><path d="M1423,471.9H255.7c-122.6,0-221.9-99.4-221.9-221.9v0c0-122.6,99.4-221.9,221.9-221.9H1423 c122.6,0,221.9,99.4,221.9,221.9v0C1644.9,372.6,1545.6,471.9,1423,471.9z" fill="#7a7a7a"/></g><g id="change3_1"><path d="M49.5,250.8v-1.6c0-114.3,92.7-207,207-207h1165.7c114.3,0,207,92.7,207,207v1.6c0,114.3-92.7,207-207,207 H256.5C142.2,457.8,49.5,365.1,49.5,250.8z" fill="#5b5959"/></g></g></svg>